<svg width="152" height="152" viewBox="0 0 152 152" fill="none" xmlns="http://www.w3.org/2000/svg">
<circle cx="76" cy="76" r="76" fill="black"/>
<path d="M25.1361 55.9091C28.1363 40.4091 45.1361 41.4091 45.1361 41.4091V75.9091C45.1361 75.9091 67.7129 79.9091 64.6361 95.9091C62.1362 108.909 45.1361 111.409 45.1361 111.409V75.9091C45.1361 75.9091 22.136 71.4091 25.1361 55.9091Z" fill="white"/>
<path d="M105.746 65L89 45H123L105.746 65Z" fill="white"/>
<path d="M62.1818 58.6364C61.7955 54.75 60.0795 51.6591 57.0341 49.3636C53.9886 47.0682 50.1591 45.9205 45.5455 45.9205C42.2955 45.9205 39.4318 46.4773 36.9545 47.5909C34.5 48.7045 32.5682 50.25 31.1591 52.2273C29.7727 54.1818 29.0795 56.4091 29.0795 58.9091C29.0795 60.75 29.4773 62.3636 30.2727 63.75C31.0682 65.1364 32.1364 66.3295 33.4773 67.3295C34.8409 68.3068 36.3409 69.1477 37.9773 69.8523C39.6364 70.5568 41.3068 71.1477 42.9886 71.625L50.3523 73.7386C52.5795 74.3523 54.8068 75.1364 57.0341 76.0909C59.2614 77.0455 61.2955 78.25 63.1364 79.7045C65 81.1364 66.4886 82.8977 67.6023 84.9886C68.7386 87.0568 69.3068 89.5455 69.3068 92.4545C69.3068 96.1818 68.3409 99.5341 66.4091 102.511C64.4773 105.489 61.7045 107.852 58.0909 109.602C54.4773 111.33 50.1477 112.193 45.1023 112.193C40.3523 112.193 36.2273 111.409 32.7273 109.841C29.2273 108.25 26.4773 106.057 24.4773 103.261C22.4773 100.466 21.3523 97.2273 21.1023 93.5455H27.6477C27.875 96.2955 28.7841 98.625 30.375 100.534C31.9659 102.443 34.0341 103.898 36.5795 104.898C39.125 105.875 41.9659 106.364 45.1023 106.364C48.5795 106.364 51.6705 105.784 54.375 104.625C57.1023 103.443 59.2386 101.807 60.7841 99.7159C62.3523 97.6023 63.1364 95.1477 63.1364 92.3523C63.1364 89.9886 62.5227 88.0114 61.2955 86.4205C60.0682 84.8068 58.3523 83.4545 56.1477 82.3636C53.9659 81.2727 51.4318 80.3068 48.5455 79.4659L40.1932 77.0114C34.7159 75.375 30.4659 73.1136 27.4432 70.2273C24.4205 67.3409 22.9091 63.6591 22.9091 59.1818C22.9091 55.4318 23.9091 52.1364 25.9091 49.2955C27.9318 46.4318 30.6591 44.2045 34.0909 42.6136C37.5455 41 41.4205 40.1932 45.7159 40.1932C50.0568 40.1932 53.8977 40.9886 57.2386 42.5795C60.5795 44.1705 63.2273 46.3636 65.1818 49.1591C67.1591 51.9318 68.2159 55.0909 68.3523 58.6364H62.1818ZM80.4205 46.9091V41.1818H131.045V46.9091H108.92V111H102.545V46.9091H80.4205Z" fill="white"/>
</svg>
