<svg width="152" height="152" viewBox="0 0 152 152" fill="none" xmlns="http://www.w3.org/2000/svg">
<path fill-rule="evenodd" clip-rule="evenodd" d="M76 152C117.974 152 152 117.974 152 76C152 34.0264 117.974 0 76 0C34.0264 0 0 34.0264 0 76C0 117.974 34.0264 152 76 152ZM59.4205 46.7841C62.7386 49.8523 64.5682 53.7727 64.9091 58.5455H67.0909C66.8636 54.9545 65.8636 51.7614 64.0909 48.9659C62.3182 46.1705 59.9205 43.9773 56.8977 42.3864C53.875 40.7955 50.3636 40 46.3636 40C42.3864 40 38.8295 40.7841 35.6932 42.3523C32.5795 43.9205 30.125 46.0682 28.3295 48.7955C26.5341 51.5 25.6364 54.5682 25.6364 58C25.6364 62.0455 26.9886 65.4886 29.6932 68.3295C32.4205 71.1705 36.5227 73.4545 42 75.1818L47.1361 76.7758V109.792C46.703 109.81 46.2637 109.818 45.8182 109.818C41.9773 109.818 38.625 109.17 35.7614 107.875C32.9205 106.58 30.6705 104.784 29.0114 102.489C27.3523 100.193 26.4091 97.5455 26.1818 94.5455H24C24.2273 97.9545 25.2614 100.977 27.1023 103.614C28.9659 106.227 31.4886 108.284 34.6705 109.784C37.8523 111.261 41.5682 112 45.8182 112C50.2273 112 54.1023 111.193 57.4432 109.58C60.7841 107.966 63.3864 105.739 65.25 102.898C67.1136 100.057 68.0455 96.8182 68.0455 93.1818C68.0455 91.0227 67.6932 89.0682 66.9886 87.3182C66.2841 85.5455 65.2045 83.9432 63.75 82.5114C62.3182 81.0568 60.5 79.75 58.2955 78.5909C56.0909 77.4318 53.4773 76.3864 50.4545 75.4545L47.1361 74.4247V42.1924C52.1886 42.3328 56.2834 43.8633 59.4205 46.7841ZM81.2812 41.0909V43.2727H89.7444L103.781 60.5448V110.909H105.963V60.6274L120.494 43.2727H128.463V41.0909H81.2812Z" fill="black"/>
</svg>
