<svg width="215" height="83" viewBox="0 0 215 83" fill="none" xmlns="http://www.w3.org/2000/svg">
<path d="M41.2729 18.6364C40.932 13.8637 39.1024 9.94321 35.7842 6.87503C32.4888 3.80685 28.1365 2.27276 22.7274 2.27276C19.182 2.27276 16.0115 2.95458 13.216 4.31821C10.4206 5.68185 8.21604 7.55685 6.60241 9.94321C4.98877 12.3068 4.18195 15.0228 4.18195 18.0909C4.18195 19.8637 4.47741 21.5 5.06832 23C5.65922 24.5 6.55695 25.875 7.7615 27.125C8.98877 28.3523 10.5229 29.4659 12.3638 30.4659C14.2274 31.4432 16.4092 32.3182 18.9092 33.0909L26.8183 35.5455C29.841 36.4773 32.4547 37.5228 34.6592 38.6819C36.8638 39.8409 38.682 41.1478 40.1138 42.6023C41.5683 44.0341 42.6479 45.6364 43.3524 47.4091C44.057 49.1591 44.4092 51.1137 44.4092 53.2728C44.4092 56.9091 43.4774 60.1478 41.6138 62.9887C39.7501 65.8296 37.1479 68.0569 33.807 69.6705C30.466 71.2841 26.591 72.0909 22.182 72.0909C17.932 72.0909 14.216 71.3523 11.0342 69.875C7.85241 68.375 5.32968 66.3182 3.46604 63.7046C1.62513 61.0682 0.591043 58.0455 0.36377 54.6364H2.54559C2.77286 57.6364 3.71604 60.2841 5.37513 62.5796C7.03422 64.875 9.28422 66.6705 12.1251 67.9659C14.9888 69.2614 18.341 69.9091 22.182 69.9091C26.182 69.9091 29.682 69.2159 32.682 67.8296C35.7047 66.4205 38.0456 64.4659 39.7047 61.9659C41.3865 59.4659 42.2274 56.5682 42.2274 53.2728C42.2274 50.7728 41.682 48.5796 40.591 46.6932C39.5001 44.7841 37.7842 43.1023 35.4433 41.6478C33.1024 40.1932 30.0456 38.8864 26.2729 37.7273L18.3638 35.2728C12.8865 33.5455 8.78422 31.2614 6.05695 28.4205C3.35241 25.5796 2.00013 22.1364 2.00013 18.0909C2.00013 14.6591 2.89786 11.5909 4.69332 8.8864C6.48877 6.15912 8.94331 4.0114 12.057 2.44321C15.1933 0.875032 18.7501 0.0909424 22.7274 0.0909424C26.7274 0.0909424 30.2388 0.886396 33.2615 2.4773C36.2842 4.06821 38.682 6.26139 40.4547 9.05685C42.2274 11.8523 43.2274 15.0455 43.4547 18.6364H41.2729Z" fill="black"/>
<path d="M57.645 3.36367V1.18185H104.827V3.36367H82.3268V71H80.145V3.36367H57.645Z" fill="black"/>
<path d="M3.49989 16C6.50003 0.5 23.4999 1.5 23.4999 1.5V36C23.4999 36 46.0767 40 42.9999 56C40.5 69 23.4999 71.5 23.4999 71.5V36C23.4999 36 0.499752 31.5 3.49989 16Z" fill="black"/>
<path d="M81.2537 22L65 2H98L81.2537 22Z" fill="black"/>
<path d="M120.648 59H120.068C119.96 58.4205 119.75 57.8295 119.438 57.2273C119.125 56.625 118.71 56.0682 118.193 55.5568C117.676 55.0455 117.065 54.6335 116.361 54.321C115.656 54.0085 114.858 53.8523 113.966 53.8523C112.773 53.8523 111.668 54.179 110.651 54.8324C109.639 55.4801 108.824 56.4318 108.205 57.6875C107.591 58.9375 107.284 60.4659 107.284 62.2727C107.284 64.1023 107.591 65.642 108.205 66.892C108.824 68.142 109.639 69.0881 110.651 69.7301C111.668 70.3722 112.773 70.6932 113.966 70.6932C114.858 70.6932 115.656 70.5398 116.361 70.233C117.065 69.9205 117.676 69.5114 118.193 69.0057C118.71 68.4943 119.125 67.9375 119.438 67.3352C119.75 66.7273 119.96 66.1307 120.068 65.5455H120.648C120.54 66.1591 120.324 66.7983 120 67.4631C119.676 68.1222 119.239 68.7386 118.688 69.3125C118.136 69.8864 117.469 70.3523 116.685 70.7102C115.901 71.0625 114.994 71.2386 113.966 71.2386C112.534 71.2386 111.276 70.8636 110.19 70.1136C109.105 69.3636 108.259 68.3153 107.651 66.9688C107.043 65.6222 106.739 64.0568 106.739 62.2727C106.739 60.4886 107.043 58.9233 107.651 57.5767C108.259 56.2301 109.105 55.1818 110.19 54.4318C111.276 53.6818 112.534 53.3068 113.966 53.3068C114.994 53.3068 115.901 53.483 116.685 53.8352C117.469 54.1875 118.136 54.6506 118.688 55.2244C119.239 55.7926 119.676 56.4091 120 57.0739C120.324 57.733 120.54 58.375 120.648 59ZM129.298 71.2727C128.27 71.2727 127.347 70.9773 126.528 70.3864C125.71 69.7898 125.063 68.9801 124.585 67.9574C124.114 66.929 123.878 65.7727 123.878 64.4886C123.878 63.1989 124.114 62.0426 124.585 61.0199C125.063 59.9972 125.71 59.1903 126.528 58.5994C127.347 58.0028 128.27 57.7045 129.298 57.7045C130.327 57.7045 131.247 58.0028 132.06 58.5994C132.878 59.196 133.526 60.0057 134.003 61.0284C134.48 62.0511 134.719 63.2045 134.719 64.4886C134.719 65.7727 134.48 66.929 134.003 67.9574C133.531 68.9801 132.886 69.7898 132.068 70.3864C131.25 70.9773 130.327 71.2727 129.298 71.2727ZM129.298 70.7273C130.224 70.7273 131.054 70.4545 131.787 69.9091C132.526 69.3636 133.108 68.6193 133.534 67.6761C133.96 66.733 134.173 65.6705 134.173 64.4886C134.173 63.3068 133.957 62.2472 133.526 61.3097C133.099 60.3665 132.52 59.6222 131.787 59.0767C131.054 58.5256 130.224 58.25 129.298 58.25C128.378 58.25 127.548 58.5256 126.81 59.0767C126.077 59.6222 125.494 60.3665 125.062 61.3097C124.636 62.2472 124.423 63.3068 124.423 64.4886C124.423 65.6705 124.636 66.733 125.062 67.6761C125.489 68.6193 126.068 69.3636 126.801 69.9091C127.54 70.4545 128.372 70.7273 129.298 70.7273ZM139.106 53.5455V71H138.56V53.5455H139.106ZM144.286 53.5455V71H143.74V53.5455H144.286ZM153.829 71.2727C152.687 71.2727 151.687 70.9744 150.829 70.3778C149.977 69.7812 149.315 68.9716 148.843 67.9489C148.371 66.9261 148.136 65.7727 148.136 64.4886C148.136 63.2045 148.371 62.0511 148.843 61.0284C149.32 60.0057 149.968 59.196 150.786 58.5994C151.604 58.0028 152.528 57.7045 153.556 57.7045C154.317 57.7045 155.022 57.8665 155.67 58.1903C156.323 58.5142 156.891 58.9631 157.374 59.5369C157.857 60.1108 158.232 60.7727 158.499 61.5227C158.772 62.267 158.908 63.0625 158.908 63.9091V64.4545H148.408V63.9091H158.363C158.363 62.858 158.147 61.9062 157.715 61.054C157.283 60.196 156.704 59.5142 155.977 59.0085C155.249 58.5028 154.442 58.25 153.556 58.25C152.658 58.25 151.846 58.517 151.119 59.0511C150.391 59.5852 149.809 60.3125 149.371 61.233C148.934 62.1534 148.704 63.1932 148.681 64.3523V64.4205C148.681 65.5625 148.88 66.6136 149.278 67.5739C149.681 68.5284 150.266 69.2926 151.033 69.8665C151.8 70.4403 152.732 70.7273 153.829 70.7273C154.636 70.7273 155.312 70.5852 155.857 70.3011C156.408 70.017 156.849 69.6903 157.178 69.321C157.513 68.9517 157.761 68.6364 157.92 68.375L158.363 68.6818C158.17 69.0114 157.88 69.3778 157.494 69.7812C157.107 70.1847 156.613 70.5341 156.011 70.8295C155.408 71.125 154.681 71.2727 153.829 71.2727ZM167.476 71.2727C166.419 71.2727 165.476 70.9773 164.646 70.3864C163.822 69.7898 163.172 68.9801 162.695 67.9574C162.223 66.9347 161.987 65.7784 161.987 64.4886C161.987 63.2102 162.223 62.0597 162.695 61.0369C163.166 60.0085 163.814 59.196 164.638 58.5994C165.467 58.0028 166.413 57.7045 167.476 57.7045C168.26 57.7045 168.979 57.875 169.632 58.2159C170.291 58.5511 170.842 59.0227 171.286 59.6307C171.729 60.233 172.016 60.9318 172.146 61.7273H171.567C171.391 60.6989 170.922 59.8636 170.161 59.2216C169.405 58.5739 168.51 58.25 167.476 58.25C166.538 58.25 165.695 58.5227 164.945 59.0682C164.2 59.608 163.612 60.3494 163.18 61.2926C162.749 62.2301 162.533 63.2955 162.533 64.4886C162.533 65.6477 162.74 66.6989 163.155 67.642C163.575 68.5852 164.158 69.3352 164.902 69.892C165.646 70.4489 166.504 70.7273 167.476 70.7273C168.175 70.7273 168.817 70.5824 169.402 70.2926C169.987 69.9972 170.473 69.5824 170.859 69.0483C171.251 68.5142 171.499 67.892 171.601 67.1818H172.18C172.055 68.0057 171.771 68.7244 171.328 69.3381C170.885 69.9517 170.331 70.429 169.666 70.7699C169.001 71.1051 168.271 71.2727 167.476 71.2727ZM180.128 57.9091V58.4545H174.946V57.9091H180.128ZM176.855 54.7727H177.401V68.2386C177.401 68.75 177.514 69.1903 177.741 69.5597C177.969 69.9233 178.27 70.2045 178.645 70.4034C179.02 70.5966 179.423 70.6932 179.855 70.6932C180.02 70.6932 180.17 70.679 180.307 70.6506C180.449 70.6222 180.594 70.5795 180.741 70.5227L180.912 71.0341C180.741 71.0966 180.574 71.1449 180.409 71.179C180.244 71.2188 180.06 71.2386 179.855 71.2386C179.321 71.2386 178.824 71.1165 178.364 70.8722C177.909 70.6278 177.543 70.2812 177.264 69.8324C176.991 69.3835 176.855 68.8523 176.855 68.2386V54.7727ZM184.449 71V57.9091H184.994V71H184.449ZM184.722 55.5227C184.574 55.5227 184.446 55.4687 184.338 55.3608C184.23 55.2528 184.176 55.125 184.176 54.9773C184.176 54.8295 184.23 54.7017 184.338 54.5938C184.446 54.4858 184.574 54.4318 184.722 54.4318C184.869 54.4318 184.997 54.4858 185.105 54.5938C185.213 54.7017 185.267 54.8295 185.267 54.9773C185.267 55.125 185.213 55.2528 185.105 55.3608C184.997 55.4687 184.869 55.5227 184.722 55.5227ZM194.337 71.2727C193.309 71.2727 192.386 70.9773 191.567 70.3864C190.749 69.7898 190.102 68.9801 189.624 67.9574C189.153 66.929 188.917 65.7727 188.917 64.4886C188.917 63.1989 189.153 62.0426 189.624 61.0199C190.102 59.9972 190.749 59.1903 191.567 58.5994C192.386 58.0028 193.309 57.7045 194.337 57.7045C195.366 57.7045 196.286 58.0028 197.099 58.5994C197.917 59.196 198.565 60.0057 199.042 61.0284C199.519 62.0511 199.758 63.2045 199.758 64.4886C199.758 65.7727 199.519 66.929 199.042 67.9574C198.57 68.9801 197.925 69.7898 197.107 70.3864C196.289 70.9773 195.366 71.2727 194.337 71.2727ZM194.337 70.7273C195.263 70.7273 196.093 70.4545 196.826 69.9091C197.565 69.3636 198.147 68.6193 198.573 67.6761C198.999 66.733 199.212 65.6705 199.212 64.4886C199.212 63.3068 198.996 62.2472 198.565 61.3097C198.138 60.3665 197.559 59.6222 196.826 59.0767C196.093 58.5256 195.263 58.25 194.337 58.25C193.417 58.25 192.587 58.5256 191.849 59.0767C191.116 59.6222 190.533 60.3665 190.102 61.3097C189.675 62.2472 189.462 63.3068 189.462 64.4886C189.462 65.6705 189.675 66.733 190.102 67.6761C190.528 68.6193 191.107 69.3636 191.84 69.9091C192.579 70.4545 193.411 70.7273 194.337 70.7273ZM204.145 62.2045V71H203.599V57.9091H204.145V59.9886H204.213C204.52 59.3068 205.023 58.7614 205.722 58.3523C206.426 57.9432 207.23 57.7386 208.134 57.7386C209.009 57.7386 209.781 57.929 210.452 58.3097C211.122 58.6903 211.648 59.2159 212.028 59.8864C212.409 60.5568 212.599 61.3295 212.599 62.2045V71H212.054V62.2045C212.054 61.0455 211.69 60.1023 210.963 59.375C210.236 58.6477 209.293 58.2841 208.134 58.2841C207.361 58.2841 206.673 58.4517 206.071 58.7869C205.474 59.1222 205.003 59.5852 204.656 60.1761C204.315 60.767 204.145 61.4432 204.145 62.2045Z" fill="black"/>
<path d="M0 82L215 82" stroke="black"/>
</svg>
